<?xml version="1.0" encoding="UTF-8" standalone="no"?>
<!DOCTYPE svg PUBLIC "-//W3C//DTD SVG 1.1//EN" "http://www.w3.org/Graphics/SVG/1.1/DTD/svg11.dtd">
<svg width="128px" height="128px" version="1.1" xmlns="http://www.w3.org/2000/svg" xmlns:xlink="http://www.w3.org/1999/xlink" xml:space="preserve" xmlns:serif="http://www.serif.com/" style="fill-rule:evenodd;clip-rule:evenodd;stroke-linejoin:round;stroke-miterlimit:2;">
    <path id="Avatar" d="M128,64C128,99.345 99.346,128 64,128C28.654,128 0,99.345 0,64C0,28.655 28.654,0 64,0C99.346,0 128,28.655 128,64Z" style="fill:#2f3136;"/>
    <path d="M44.342,100.095C42.874,100.489 41.42,100.928 39.974,101.385C35.94,102.663 31.956,104.091 28,105.589C38.271,114.522 51.798,120 66.678,120C80.898,120 93.909,115.021 104,106.783C98.759,104.418 91.361,102.03 91.361,102.03C82.564,100.388 79.903,98.428 79.903,98.428C77.079,97.177 77.564,85.355 77.564,85.355C81.92,84.805 81.679,71.808 81.679,71.808C84.744,73.687 84.988,69.772 84.988,69.772C85.147,68.285 85.954,65.545 85.954,65.545C88.94,56.384 84.581,58.575 84.581,58.575C87.002,49.65 85.954,41.979 85.954,41.979C85.432,38.16 83.612,34.983 80.33,32.764C79.218,32.012 78.011,31.395 76.748,30.919C75.03,30.272 73.251,29.396 71.49,28.925C70.053,28.54 68.576,28.314 67.093,28.174C65.459,28.021 63.793,27.948 62.153,28.041C60.618,28.041 59.892,28.982 59.892,28.982C59.66,29.277 57.678,29.638 57.222,29.846C56.41,30.215 55.617,30.629 54.842,31.069C52.875,32.192 51.125,33.643 49.294,34.955C47.863,35.98 46.046,36.667 45.024,38.143C44.133,39.433 43.643,40.954 43.364,42.469C43.048,44.204 42.845,46.254 43.193,48.006C43.594,50.042 44.16,59.124 44.16,59.124C40.932,58.499 42.708,63.117 42.708,63.117C43.353,63.979 44.241,68.677 44.241,68.677C45.048,75.489 48.437,72.749 48.437,72.749C47.871,84.805 52.068,85.431 52.068,85.431C52.631,92.477 51.261,96.549 51.261,96.549C50.237,99.157 46.728,99.455 44.342,100.095Z" style="fill:#7289da;"/>
</svg>
